<?xml version="1.0" encoding="UTF-8"?>
<svg version="1.1" xmlns="http://www.w3.org/2000/svg" width="350" height="350">
<path d="M0 0 C2.30078125 -0.2421875 2.30078125 -0.2421875 5 0 C11.98734354 6.51279327 16.31544678 17.52453816 20.84716797 25.88232422 C21.87683163 27.77374789 22.91996561 29.65648313 23.97265625 31.53515625 C24.51792969 32.51355469 25.06320313 33.49195313 25.625 34.5 C26.32496094 35.75296875 26.32496094 35.75296875 27.0390625 37.03125 C28 39 28 39 28 41 C23.77694 39.49176429 22.3430867 36.67214848 20 33 C20.35191406 33.81597656 20.70382813 34.63195313 21.06640625 35.47265625 C32.07267218 61.88194709 37.93598771 89.93941426 43 118 C43.17539307 117.10095947 43.35078613 116.20191895 43.53149414 115.27563477 C57.67035101 43.34471571 57.67035101 43.34471571 80 14 C81.37070916 12.02094239 82.68985854 10.01980142 84 8 C78.70439675 13.68727805 74.38966515 19.68497809 70.25 26.25 C69.13140163 28.00596907 68.01165159 29.76120514 66.890625 31.515625 C66.40625977 32.28165039 65.92189453 33.04767578 65.42285156 33.83691406 C64.01846144 35.97193405 62.64438197 38.04208475 61 40 C60.34 40 59.68 40 59 40 C60.2125738 36.27566618 61.50859979 32.62197194 63 29 C63.66 29 64.32 29 65 29 C65.23074219 28.1853125 65.46148437 27.370625 65.69921875 26.53125 C67.29356197 22.20306301 69.45513496 18.45092991 71.8125 14.5 C72.23853516 13.76652344 72.66457031 13.03304688 73.10351562 12.27734375 C75.73478415 7.82687747 78.44491544 3.76768098 82 0 C84.8125 -0.375 84.8125 -0.375 87 0 C87 1.32 87 2.64 87 4 C87.66 4 88.32 4 89 4 C89 4.66 89 5.32 89 6 C89.5775 5.484375 90.155 4.96875 90.75 4.4375 C93 3 93 3 95.25 3.3125 C95.8275 3.539375 96.405 3.76625 97 4 C97.77358371 6.75146027 98.12948282 9.20735339 98.14526367 12.0625 C98.15164352 12.85011719 98.15802338 13.63773438 98.16459656 14.44921875 C98.16626579 15.71185547 98.16626579 15.71185547 98.16796875 17 C98.17129715 17.87269531 98.17462555 18.74539062 98.17805481 19.64453125 C98.18311024 21.48697381 98.18546356 23.32942551 98.18530273 25.171875 C98.18749203 27.98973631 98.20566995 30.80720777 98.22460938 33.625 C98.22754302 35.41666533 98.22952801 37.20833252 98.23046875 39 C98.23765427 39.84175781 98.24483978 40.68351562 98.25224304 41.55078125 C98.24916641 42.33839844 98.24608978 43.12601563 98.24291992 43.9375 C98.24434494 44.62714844 98.24576996 45.31679688 98.24723816 46.02734375 C97.95649963 48.34707945 97.1416817 49.97578408 96 52 C93.88074396 49.88074396 94.58168983 45.3803907 94.4375 42.4375 C94.37272461 41.22803711 94.37272461 41.22803711 94.30664062 39.99414062 C94.20024738 37.99631195 94.09959112 35.9981793 94 34 C93.92523438 35.14210937 93.85046875 36.28421875 93.7734375 37.4609375 C91.37729299 68.74211171 81.0268213 98.82856199 70 128 C76.29287613 121.0381468 76.29287613 121.0381468 82.5 114 C83.07234375 113.34644531 83.6446875 112.69289063 84.234375 112.01953125 C85.41662862 110.66726328 86.59368378 109.31043366 87.765625 107.94921875 C99.04936583 95.08841966 111.19651427 82.16989039 125 72 C125.98613281 71.25878906 126.97226562 70.51757812 127.98828125 69.75390625 C137.36607023 62.96388322 147.48788497 57.28587883 158.41796875 53.3984375 C162.06054562 52.43769583 162.06054562 52.43769583 163 50 C153.26823484 54.23512002 143.61675269 58.53511752 134.21679688 63.47265625 C130.82640974 65.22299252 127.79345832 66.48697992 124 67 C125.31495805 63.05512585 127.66301767 62.09980535 131.08984375 60.12890625 C131.70839737 59.76530502 132.32695099 59.4017038 132.96424866 59.02708435 C134.27904848 58.25711543 135.59647097 57.49161036 136.91625977 56.73022461 C138.9050743 55.58123319 140.88359116 54.41597839 142.86132812 53.24804688 C161.22172025 42.49515713 161.22172025 42.49515713 166.26928711 43.41235352 C166.84042236 43.60627686 167.41155762 43.8002002 168 44 C168 46.64 168 49.28 168 52 C169.98 52 171.96 52 174 52 C175.62618397 56.87855191 173.13307693 60.50467259 171 65 C165.53660889 75.31136575 159.24301447 85.14934193 153 95 C152.01 94.67 151.02 94.34 150 94 C150.44915771 93.1121582 150.89831543 92.22431641 151.36108398 91.30957031 C153.02938966 88.00920988 154.69236558 84.70618807 156.35375977 81.40234375 C157.07301491 79.97387937 157.79370569 78.54613691 158.51586914 77.11914062 C159.55474749 75.06569353 160.58840383 73.00968983 161.62109375 70.953125 C161.94403915 70.31755676 162.26698456 69.68198853 162.59971619 69.02716064 C164.08324066 66.06085813 165.39568292 63.27547011 166 60 C165.76925781 60.51796143 165.53851563 61.03592285 165.30078125 61.56958008 C160.71219798 71.78393874 156.16516052 81.30325312 149 90 C148.30648438 90.89332031 147.61296875 91.78664063 146.8984375 92.70703125 C140.45507822 100.71400703 133.24043393 107.97142203 126 115.25 C125.49170654 115.76356049 124.98341309 116.27712097 124.4597168 116.8062439 C118.36495422 122.94970275 112.14232316 128.69294331 105.37060547 134.1015625 C102.66659716 136.26699696 100.11024476 138.52918442 97.5625 140.875 C94.79794232 143.4163891 92.01749233 145.76742738 89 148 C94.45022775 146.40656001 99.86631475 144.73182493 105.2578125 142.94921875 C119.51941772 138.23993406 133.76897271 133.90542608 148.42236328 130.5859375 C150.01736259 130.22336899 151.61008994 129.85042432 153.19873047 129.4609375 C171.0452894 125.10411226 190.87528963 125.98874182 209 128 C209 127.34 209 126.68 209 126 C208.40832031 126.01160156 207.81664062 126.02320312 207.20703125 126.03515625 C206.41683594 126.04417969 205.62664062 126.05320312 204.8125 126.0625 C204.03519531 126.07410156 203.25789063 126.08570312 202.45703125 126.09765625 C200 126 200 126 197.75976562 125.52734375 C194.6284795 124.92900882 191.56725271 124.68268854 188.38671875 124.46484375 C187.13955078 124.37783203 185.89238281 124.29082031 184.60742188 124.20117188 C183.31384766 124.11416016 182.02027344 124.02714844 180.6875 123.9375 C179.37458984 123.84662109 178.06167969 123.75574219 176.70898438 123.66210938 C173.47284324 123.43852144 170.23652657 123.21792549 167 123 C167 122.34 167 121.68 167 121 C170.73275677 119.75574774 174.21684087 119.83766033 178.10546875 119.83203125 C178.90350418 119.82870285 179.70153961 119.82537445 180.52375793 119.82194519 C182.21415634 119.81688267 183.90456473 119.81453666 185.5949707 119.81469727 C188.16049081 119.81252289 190.72557228 119.79439391 193.29101562 119.77539062 C194.93749854 119.772454 196.58398348 119.77047101 198.23046875 119.76953125 C198.98909714 119.76234573 199.74772552 119.75516022 200.52934265 119.74775696 C205.65722707 119.76935452 210.0660026 120.59123365 215 122 C215 125.90432869 214.31626692 128.38026598 213 132 C214.32 132.66 215.64 133.32 217 134 C216.67861856 136.91221024 216.4431948 138.55261423 214.34765625 140.66796875 C183.77120823 161 183.77120823 161 176 161 C177.4833139 157.05302107 179.46478054 155.88728993 183.125 153.9375 C188.4729841 150.94548462 193.56784422 147.7111517 198.625 144.25 C199.32383301 143.77812256 200.02266602 143.30624512 200.74267578 142.82006836 C201.3973584 142.36897705 202.05204102 141.91788574 202.7265625 141.453125 C203.31002441 141.05254883 203.89348633 140.65197266 204.49462891 140.23925781 C206.28367845 138.88846697 206.28367845 138.88846697 208 136 C207.16339844 136.6290625 206.32679688 137.258125 205.46484375 137.90625 C173.56547629 161.54625015 132.65864039 169.417361 94 175 C94.59611084 175.12004395 95.19222168 175.24008789 95.80639648 175.36376953 C118.44524575 179.94541575 141.02866234 184.79714349 163 192 C163.70946777 192.23154785 164.41893555 192.4630957 165.14990234 192.70166016 C179.02832931 197.3234597 192.02866552 203.74074373 202.984375 213.56640625 C205.1310294 215.38639581 205.1310294 215.38639581 209 215 C198.73903866 207.08931472 188.17663706 199.57449239 177 193 C177.33 192.01 177.66 191.02 178 190 C187.48615551 194.83321488 196.89334856 199.7479538 205.9375 205.375 C206.91976562 205.98093994 206.91976562 205.98093994 207.921875 206.59912109 C211.33016998 208.75621305 214.40398536 210.89127246 217 214 C217.0625 216.5625 217.0625 216.5625 216 219 C214.35857037 220.0409066 212.69287785 221.04504326 211 222 C211 222.99 211 223.98 211 225 C211.99 225.33 212.98 225.66 214 226 C213.625 227.9375 213.625 227.9375 213 230 C200.80360678 236.09819661 179.27817881 231.76186272 166 231 C166 230.01 166 229.02 166 228 C166.99854004 227.94465088 167.99708008 227.88930176 169.02587891 227.83227539 C172.74970336 227.62498671 176.47327054 227.41335174 180.19677734 227.20043945 C181.80478387 227.10909382 183.41285676 227.01890858 185.02099609 226.92993164 C187.33970496 226.80143353 189.6581388 226.66868942 191.9765625 226.53515625 C192.68930328 226.49656998 193.40204407 226.4579837 194.13638306 226.41822815 C198.15056521 226.18238819 202.04719767 225.73810878 206 225 C202.73287085 223.91095695 200.63466987 224.25102682 197.28369141 224.72460938 C159.52000678 229.27853671 119.52746191 213.40477933 85 200 C85.87140625 200.73863281 86.7428125 201.47726563 87.640625 202.23828125 C94.6175799 208.17303133 101.48342456 214.19752272 108.203125 220.421875 C110.77525431 222.79283218 113.38093376 225.11870887 116 227.4375 C124.48776199 235.06418468 132.82783656 243.11243252 140 252 C140.64122803 252.78721436 140.64122803 252.78721436 141.29541016 253.59033203 C149.71496548 264.02716152 156.09721959 274.98518257 162 287 C162.58652344 288.17304688 163.17304688 289.34609375 163.77734375 290.5546875 C164.18082031 291.36164063 164.58429688 292.16859375 165 293 C165 289.1385685 163.54885953 286.27009263 162 282.8125 C161.53775024 281.76521729 161.53775024 281.76521729 161.06616211 280.69677734 C158.39590824 274.72059027 155.49944306 268.86614025 152.49023438 263.05395508 C150 258.2035456 150 258.2035456 150 256 C153.85570408 257.28523469 154.29946661 258.6630274 156.36328125 262.109375 C157.32331055 263.70845703 157.32331055 263.70845703 158.30273438 265.33984375 C158.96595703 266.46519531 159.62917969 267.59054687 160.3125 268.75 C160.96412109 269.82894531 161.61574219 270.90789062 162.28710938 272.01953125 C174.38804352 292.34522444 174.38804352 292.34522444 173.65356445 297.37011719 C173.43788818 297.90797852 173.22221191 298.44583984 173 299 C170.36 299 167.72 299 165 299 C165.0928125 300.918125 165.0928125 300.918125 165.1875 302.875 C165.29296875 305.0546875 165.29296875 305.0546875 165 307 C164.01 307.66 163.02 308.32 162 309 C153.84779814 305.01492862 145.78264646 301.03987542 138.0625 296.25390625 C135.44419086 294.66209331 132.76772548 293.31102786 130 292 C130 291.34 130 290.68 130 290 C129.236875 289.71125 128.47375 289.4225 127.6875 289.125 C125 288 125 288 122 286 C122 285.34 122 284.68 122 284 C125.84004056 284.59730136 128.75579513 285.73860799 132.16796875 287.58203125 C133.14443359 288.10216797 134.12089844 288.62230469 135.12695312 289.15820312 C136.13693359 289.70412109 137.14691406 290.25003906 138.1875 290.8125 C145.32298687 294.66111328 152.39201126 298.17752945 160 301 C157.71655095 297.57482643 156.69539895 297.27304106 152.9375 295.9375 C148.10567686 294.21135371 148.10567686 294.21135371 147 292 C146.12601562 291.70996094 145.25203125 291.41992188 144.3515625 291.12109375 C140.67139353 289.89008152 137.60794989 288.15738944 134.375 286.0625 C133.76962402 285.67280029 133.16424805 285.28310059 132.54052734 284.8815918 C127.0840897 281.25798682 122.40392305 277.01710729 117.68359375 272.5 C115.42755221 270.39830192 113.19930172 268.58667089 110.6875 266.8125 C107.33416214 264.38115931 104.81454711 261.6865244 102.1640625 258.515625 C99.29601669 255.18165116 96.2695328 252.00893962 93.25 248.8125 C83.98244476 238.94759305 75.43298774 228.58254714 67 218 C67.32685791 218.95962646 67.65371582 219.91925293 67.99047852 220.90795898 C81.48845381 260.6152074 81.48845381 260.6152074 86 279 C86.33233643 280.33732178 86.33233643 280.33732178 86.67138672 281.70166016 C91.18981168 300.57517314 91.55566918 320.78053664 89 340 C89.66 340 90.32 340 91 340 C92.52783289 319.50202497 92.52783289 319.50202497 94 299 C94.66 299 95.32 299 96 299 C97.22305309 302.66915928 97.16227513 306.06542546 97.16796875 309.88671875 C97.17129715 310.66255814 97.17462555 311.43839752 97.17805481 312.23774719 C97.18311689 313.88106698 97.18546336 315.52439704 97.18530273 317.16772461 C97.18747674 319.66082142 97.20560508 322.15346657 97.22460938 324.64648438 C97.22754609 326.24739433 97.22952902 327.84830638 97.23046875 329.44921875 C97.23765427 330.18597336 97.24483978 330.92272797 97.25224304 331.68180847 C97.23028405 336.75261138 96.38791379 341.11978296 95 346 C93.68 346.33 92.36 346.66 91 347 C90.67 346.01 90.34 345.02 90 344 C86.18586998 345.1678266 86.18586998 345.1678266 83.6875 348.125 C83.460625 348.74375 83.23375 349.3625 83 350 C80.80859375 350.4609375 80.80859375 350.4609375 78 350 C76.0789438 347.54616277 74.58777686 345.30916478 73.0625 342.625 C72.62647461 341.88983154 72.19044922 341.15466309 71.74121094 340.3972168 C70.8731759 338.93132021 70.01216553 337.46123818 69.15869141 335.98681641 C67.74363855 333.5604152 66.24462263 331.19048799 64.75 328.8125 C56 314.1375 56 314.1375 56 309 C59.44389179 310.14796393 59.67359424 310.64453405 61.41796875 313.6484375 C61.86398438 314.40181396 62.31 315.15519043 62.76953125 315.93139648 C63.23746094 316.73778564 63.70539063 317.5441748 64.1875 318.375 C71.53433513 330.98274937 71.53433513 330.98274937 81 342 C79.48464299 337.57049488 77.04800928 334.03910613 74.375 330.25 C60.96273768 310.59602678 55.03920832 288.25663363 49.5690918 265.37158203 C49.22396534 263.93333303 48.8699205 262.49713171 48.49951172 261.06518555 C47.27111674 255.98649878 46.40359293 250.82105264 45.4375 245.6875 C45.20353516 244.47642578 44.96957031 243.26535156 44.72851562 242.01757812 C43.64987971 236.27219091 42.66293921 230.85102959 43 225 C42.34 225 41.68 225 41 225 C40.96986816 225.66612305 40.93973633 226.33224609 40.90869141 227.01855469 C40.32454719 236.33040853 38.44342666 245.18115575 36.375 254.25 C36.19670654 255.04002411 36.01841309 255.83004822 35.8347168 256.64401245 C29.06994518 286.54148309 21.15336508 316.08812954 1 340 C4.94813221 336.25141238 8.1906072 332.28363873 11.375 327.875 C11.85251709 327.22063965 12.33003418 326.5662793 12.82202148 325.89208984 C16.32619448 321.04688656 19.57080705 316.09778196 22.66015625 310.9765625 C24 309 24 309 26 308 C25.41743036 313.24312678 22.88637293 317.48699801 20.4375 322.0625 C19.99003418 322.90506348 19.54256836 323.74762695 19.08154297 324.61572266 C6.59470334 347.80176555 6.59470334 347.80176555 0 350 C-1.32 348.02 -2.64 346.04 -4 344 C-4.7425 344.515625 -5.485 345.03125 -6.25 345.5625 C-9 347 -9 347 -11.171875 346.58984375 C-11.77515625 346.39519531 -12.3784375 346.20054687 -13 346 C-14.63671545 337.71534515 -15.28619664 329.81096555 -15.1875 321.375 C-15.1865332 319.79332031 -15.1865332 319.79332031 -15.18554688 318.1796875 C-15.14963521 311.73154822 -14.77498624 305.40143988 -14 299 C-13.01 299 -12.02 299 -11 299 C-10.94465088 299.99854004 -10.88930176 300.99708008 -10.83227539 302.02587891 C-10.62498671 305.74970336 -10.41335174 309.47327054 -10.20043945 313.19677734 C-10.10909382 314.80478387 -10.01890858 316.41285676 -9.92993164 318.02099609 C-9.80143353 320.33970496 -9.66868942 322.6581388 -9.53515625 324.9765625 C-9.49656998 325.68930328 -9.4579837 326.40204407 -9.41822815 327.13638306 C-9.18238819 331.15056521 -8.73810878 335.04719767 -8 339 C-6.73362365 335.62299641 -7.27787245 332.82875097 -7.74438477 329.328125 C-11.42093776 295.84234719 0.38838346 263.97362076 11.03759766 232.82275391 C12.37893353 228.88857699 13.69054457 224.9448894 15 221 C8.7649562 227.89528054 8.7649562 227.89528054 2.625 234.875 C-11.03686318 250.48414232 -25.26621692 266.62681186 -42 279 C-42.81210938 279.60585938 -43.62421875 280.21171875 -44.4609375 280.8359375 C-50.7136656 285.3528925 -57.30110903 289.18319003 -64 293 C-56.08 289.04 -48.16 285.08 -40 281 C-39.505 282.485 -39.505 282.485 -39 284 C-57.93178647 295.54708809 -57.93178647 295.54708809 -67.25 300.6875 C-68.36890625 301.31011719 -69.4878125 301.93273437 -70.640625 302.57421875 C-74.5730365 304.24320735 -77.75988567 304.65282907 -82 305 C-82 303.02 -82 301.04 -82 299 C-85.01031744 298.06576355 -85.86650268 297.95550089 -89 299 C-89.66 298.67 -90.32 298.34 -91 298 C-90.50733844 292.2522818 -88.8962654 288.15050367 -86.125 283.125 C-85.5369458 282.03819946 -85.5369458 282.03819946 -84.93701172 280.92944336 C-81.86440816 275.34916784 -78.55943256 269.92657016 -75.125 264.5625 C-74.66109863 263.83498535 -74.19719727 263.1074707 -73.71923828 262.35791016 C-73.27821777 261.68421387 -72.83719727 261.01051758 -72.3828125 260.31640625 C-71.99496582 259.72287354 -71.60711914 259.12934082 -71.20751953 258.51782227 C-70 257 -70 257 -67 255 C-67.56913284 258.45668944 -68.42160363 261.15796254 -70.109375 264.22265625 C-70.53234863 265.00342529 -70.95532227 265.78419434 -71.39111328 266.58862305 C-71.8395459 267.40500244 -72.28797852 268.22138184 -72.75 269.0625 C-76.61918901 276.23917708 -80.10557305 283.36785314 -83 291 C-82.67 291.33 -82.34 291.66 -82 292 C-81.52691406 290.86304688 -81.05382812 289.72609375 -80.56640625 288.5546875 C-71.62371818 267.48973989 -58.68964268 251.30273254 -42.5012207 235.29541016 C-40.79765184 233.61031284 -39.10243734 231.91713385 -37.40820312 230.22265625 C-31.774622 224.60696944 -26.09363391 219.12070077 -20 214 C-19.39647705 213.4853418 -18.7929541 212.97068359 -18.17114258 212.44042969 C-16.45192726 210.97569656 -14.72713391 209.51788207 -13 208.0625 C-12.41605469 207.56943359 -11.83210938 207.07636719 -11.23046875 206.56835938 C-9.82084896 205.37827054 -8.41050551 204.18903894 -7 203 C-15.14028854 205.22988758 -23.13534369 207.93214623 -31.15820312 210.546875 C-42.29983311 214.15383397 -53.49623393 217.73464299 -65 220 C-66.25039062 220.2475 -67.50078125 220.495 -68.7890625 220.75 C-75.83660552 222.11985068 -82.8421079 223.36090249 -90 224 C-87.36 224.66 -84.72 225.32 -82 226 C-82 226.66 -82 227.32 -82 228 C-86.1582008 228.17064643 -90.3166497 228.33079701 -94.47558594 228.48217773 C-95.88356794 228.53479315 -97.29145487 228.59003362 -98.69921875 228.64819336 C-124.44178406 229.70547729 -124.44178406 229.70547729 -130 226 C-129.38722388 223.03824877 -128.74627478 221.61941217 -127 219 C-127.66 219 -128.32 219 -129 219 C-129 218.34 -129 217.68 -129 217 C-130.32 217 -131.64 217 -133 217 C-133.29101562 214.74047852 -133.29101562 214.74047852 -133 212 C-126.37702867 205.222169 -116.80266695 200.92611757 -108.5 196.5625 C-107.32254141 195.93364484 -106.14545623 195.30408998 -104.96875 194.67382812 C-96.48369169 190.16123056 -96.48369169 190.16123056 -93 189 C-93 189.99 -93 190.98 -93 192 C-94.86083984 193.4987793 -94.86083984 193.4987793 -97.4609375 195.07421875 C-98.40839844 195.66009766 -99.35585937 196.24597656 -100.33203125 196.84960938 C-101.83830078 197.75936523 -101.83830078 197.75936523 -103.375 198.6875 C-111.0238967 203.33913211 -118.13694951 208.23997341 -125 214 C-124.28021973 213.43273193 -124.28021973 213.43273193 -123.54589844 212.85400391 C-95.37655102 190.85017281 -60.68384941 182.87663969 -26.20092773 176.56030273 C-25.15751221 176.36895752 -24.11409668 176.1776123 -23.0390625 175.98046875 C-21.65001709 175.73139771 -21.65001709 175.73139771 -20.23291016 175.47729492 C-17.97593703 175.09228922 -17.97593703 175.09228922 -16 174 C-16.88147705 173.83395264 -17.7629541 173.66790527 -18.67114258 173.49682617 C-21.9949087 172.86851211 -25.31786566 172.23620106 -28.64038086 171.60131836 C-30.06846947 171.32924798 -31.49684824 171.05869546 -32.92553711 170.78979492 C-41.38811407 169.19582655 -49.73274412 167.43881312 -58 165 C-59.36572144 164.60663452 -59.36572144 164.60663452 -60.7590332 164.20532227 C-71.86333835 160.98087131 -82.76722502 157.55401409 -93.4296875 153.06640625 C-95.69015029 151.93613008 -95.69015029 151.93613008 -97 152 C-95.515 152.928125 -95.515 152.928125 -94 153.875 C-93.01 154.57625 -92.02 155.2775 -91 156 C-91 156.66 -91 157.32 -91 158 C-94.86177782 157.40917177 -97.70717428 156.26334821 -101.09765625 154.33984375 C-102.05913574 153.797229 -103.02061523 153.25461426 -104.01123047 152.69555664 C-105.01814941 152.11539795 -106.02506836 151.53523926 -107.0625 150.9375 C-108.09004395 150.34767334 -109.11758789 149.75784668 -110.17626953 149.15014648 C-113.12514221 147.44610968 -116.06447246 145.72690396 -119 144 C-119.73557129 143.57106445 -120.47114258 143.14212891 -121.22900391 142.70019531 C-122.95944385 141.67948717 -124.66867135 140.62302349 -126.375 139.5625 C-127.26960938 139.00691406 -128.16421875 138.45132813 -129.0859375 137.87890625 C-131.60564605 135.40547806 -131.73788704 133.45115401 -132 130 C-130.68 129.67 -129.36 129.34 -128 129 C-128 127.68 -128 126.36 -128 125 C-128.66 125 -129.32 125 -130 125 C-129.67 123.35 -129.34 121.7 -129 120 C-124.82565078 118.83233112 -120.77843835 118.85622236 -116.47265625 118.8671875 C-115.6467247 118.86623077 -114.82079315 118.86527405 -113.96983337 118.86428833 C-112.22573775 118.86360887 -110.48163957 118.86544682 -108.73754883 118.86962891 C-106.07562542 118.87497365 -103.41387125 118.8696795 -100.75195312 118.86328125 C-99.05468713 118.86394221 -97.35742124 118.86522373 -95.66015625 118.8671875 C-94.4708828 118.86415115 -94.4708828 118.86415115 -93.25758362 118.86105347 C-89.38162442 118.87739814 -85.76726466 119.05430998 -82 120 C-82 120.66 -82 121.32 -82 122 C-89.92 122.495 -89.92 122.495 -98 123 C-96.23462891 123.12955078 -96.23462891 123.12955078 -94.43359375 123.26171875 C-64.45546714 125.70771673 -36.31100011 135.33560237 -8 145 C-16.14178613 137.47688834 -16.14178613 137.47688834 -24.4375 130.125 C-27.42574754 127.53723924 -30.20437454 124.79562546 -33 122 C-33.94875 121.236875 -34.8975 120.47375 -35.875 119.6875 C-38.96934449 117.15861948 -41.44653525 114.25899913 -44.02734375 111.21875 C-46.18449148 108.79249275 -48.47538049 106.56549783 -50.8125 104.3125 C-58.21310244 97.0022866 -64.30482768 88.68578793 -70 80 C-69.62746094 80.60328125 -69.25492188 81.2065625 -68.87109375 81.828125 C-68.39800781 82.62734375 -67.92492187 83.4265625 -67.4375 84.25 C-66.96183594 85.03890625 -66.48617187 85.8278125 -65.99609375 86.640625 C-64.86977849 89.30844625 -64.9830687 90.34501768 -66 93 C-77 77.64325843 -77 77.64325843 -77 74 C-77.66 74 -78.32 74 -79 74 C-80.5159928 70.94516699 -82.00986948 67.88002094 -83.5 64.8125 C-83.92925781 63.94818359 -84.35851562 63.08386719 -84.80078125 62.19335938 C-85.20683594 61.35224609 -85.61289063 60.51113281 -86.03125 59.64453125 C-86.40830078 58.87471924 -86.78535156 58.10490723 -87.17382812 57.31176758 C-88.09356469 54.7381903 -88.15105071 52.71261894 -88 50 C-84.86650268 48.95550089 -84.01031744 49.06576355 -81 50 C-81.185625 49.21625 -81.37125 48.4325 -81.5625 47.625 C-82 45 -82 45 -81 43 C-73.24466544 43.30644179 -68.268282 45.57358012 -61.6875 49.5625 C-60.31416504 50.37352173 -60.31416504 50.37352173 -58.91308594 51.20092773 C-56.26139462 52.7788576 -53.62733702 54.38190388 -51 56 C-50.30148926 56.42925781 -49.60297852 56.85851563 -48.88330078 57.30078125 C-39.23423676 63.29728973 -39.23423676 63.29728973 -38 67 C-38.969375 66.67 -39.93875 66.34 -40.9375 66 C-43.62149574 64.94826637 -43.62149574 64.94826637 -45 65 C-44.21238281 65.65484375 -43.42476563 66.3096875 -42.61328125 66.984375 C-29.67870618 77.79826505 -16.91736476 88.99262323 -5.9140625 101.8046875 C-3.6565759 104.39388642 -1.32850122 106.91202586 1 109.4375 C5.26677565 114.1087712 9.19937936 118.94659784 13 124 C10.77594575 115.51950422 8.204388 107.17080195 5.5625 98.8125 C-0.15861476 80.55611592 -5.29223762 62.12693864 -7 43 C-7.66 45.31 -8.32 47.62 -9 50 C-9.66 50 -10.32 50 -11 50 C-11.17025626 45.68105045 -11.33046988 41.36186782 -11.48217773 37.04223633 C-11.53489097 35.57892325 -11.59014521 34.11569905 -11.64819336 32.65258789 C-12.6880232 6.29516192 -12.6880232 6.29516192 -8 1 C-7.401875 1.309375 -6.80375 1.61875 -6.1875 1.9375 C-3.91043228 3.10209704 -3.91043228 3.10209704 -1 4 C-0.67 2.68 -0.34 1.36 0 0 Z M-5 7 C-5.33 10.3 -5.66 13.6 -6 17 C-5.67 17 -5.34 17 -5 17 C-4.67 13.7 -4.34 10.4 -4 7 C-4.33 7 -4.66 7 -5 7 Z M91 9 C92 12 92 12 92 12 Z M92 12 C92 13.98 92 15.96 92 18 C92.33 18 92.66 18 93 18 C93 16.02 93 14.04 93 12 C92.67 12 92.34 12 92 12 Z M-7 17 C-7 20.3 -7 23.6 -7 27 C-6.67 27 -6.34 27 -6 27 C-6 23.7 -6 20.4 -6 17 C-6.33 17 -6.66 17 -7 17 Z M13 21 C14 23 14 23 14 23 Z M15 24 C16 26 16 26 16 26 Z M16 26 C17 28 17 28 17 28 Z M18 29 C19 31 19 31 19 31 Z M-82 53 C-81 55 -81 55 -81 55 Z M-81 55 C-80 58 -80 58 -80 58 Z M-80 58 C-79 61 -79 61 -79 61 Z M-79 61 C-78 63 -78 63 -78 63 Z M-51 61 C-50.67 61.66 -50.34 62.32 -50 63 C-49.34 62.67 -48.68 62.34 -48 62 C-48.99 61.67 -49.98 61.34 -51 61 Z M-76 68 C-75 70 -75 70 -75 70 Z M-75 70 C-74 72 -74 72 -74 72 Z M-74 72 C-73 74 -73 74 -73 74 Z M-73 74 C-72 76 -72 76 -72 76 Z M-72 76 C-71 78 -71 78 -71 78 Z M-124 126 C-120.7 125.67 -117.4 125.34 -114 125 C-114 124.67 -114 124.34 -114 124 C-119.32170494 123.70437633 -119.32170494 123.70437633 -124 126 Z M-121 222 C-117 223 -117 223 -117 223 Z M-115 223 C-115 223.33 -115 223.66 -115 224 C-112.36 224 -109.72 224 -107 224 C-107 223.67 -107 223.34 -107 223 C-109.64 223 -112.28 223 -115 223 Z M-77 297 C-72.82412255 298.39195915 -70.86525224 296.82323219 -67 295 C-71.17587745 293.60804085 -73.13474776 295.17676781 -77 297 Z " fill="#FECAD2" transform="translate(133,0)"/>
<path d="M0 0 C0.33 0 0.66 0 1 0 C1.36332974 2.58234359 1.71594867 5.16539782 2.0625 7.75 C2.16626953 8.47960938 2.27003906 9.20921875 2.37695312 9.9609375 C2.85806208 13.6107296 3.04532842 16.47672914 2 20 C1.34 20 0.68 20 0 20 C0 13.4 0 6.8 0 0 Z " fill="#F4D0CB" transform="translate(122,30)"/>
<path d="M0 0 C6.93 0 13.86 0 21 0 C21 0.33 21 0.66 21 1 C13.08 1.495 13.08 1.495 5 2 C5 2.33 5 2.66 5 3 C3.35 3 1.7 3 0 3 C0 2.01 0 1.02 0 0 Z " fill="#F3D1CE" transform="translate(299,228)"/>
<path d="M0 0 C0.33 0.99 0.66 1.98 1 3 C-2.96 4.98 -2.96 4.98 -7 7 C-6.67 5.68 -6.34 4.36 -6 3 C-2.9375 1.25 -2.9375 1.25 0 0 Z " fill="#F4CECB" transform="translate(93,281)"/>
<path d="M0 0 C3 1 3 1 4.6875 4.0625 C5.120625 5.031875 5.55375 6.00125 6 7 C4.125 6.875 4.125 6.875 2 6 C0.75 2.9375 0.75 2.9375 0 0 Z " fill="#F7D1C8" transform="translate(283,256)"/>
</svg>
